<svg xmlns="http://www.w3.org/2000/svg" width="1400" height="780" viewBox="0 0 1400 780" role="img" aria-labelledby="title desc">
  <title>blender-zig phase map</title>
  <desc>Compact timeline of completed phases, active runs, and next targets for the Zig rewrite.</desc>
  <defs>
    <linearGradient id="bg2" x1="0" y1="0" x2="1" y2="1">
      <stop offset="0%" stop-color="#0d1320"/>
      <stop offset="100%" stop-color="#111827"/>
    </linearGradient>
    <style>
      .t { font-family: -apple-system, BlinkMacSystemFont, "SF Mono", Menlo, monospace; fill: #e5edf5; }
      .muted { fill: #95a3b3; }
      .line { stroke: #324255; stroke-width: 6; stroke-linecap: round; }
      .done { fill: #86efac; }
      .open { fill: #fbbf24; }
      .node { fill: #182335; stroke: #334457; stroke-width: 2; rx: 16; }
      .tag { fill: #203247; stroke: #35506b; stroke-width: 1.5; rx: 10; }
    </style>
  </defs>
  <rect width="1400" height="780" fill="url(#bg2)"/>
  <text x="60" y="72" class="t" font-size="32" font-weight="700">phase map</text>
  <text x="60" y="104" class="t muted" font-size="16">current workstream and next targets for the Zig rewrite</text>

  <line x1="90" y1="200" x2="1310" y2="200" class="line"/>
  <circle cx="150" cy="200" r="22" class="done"/>
  <circle cx="320" cy="200" r="22" class="done"/>
  <circle cx="490" cy="200" r="22" class="done"/>
  <circle cx="660" cy="200" r="22" class="done"/>
  <circle cx="830" cy="200" r="22" class="done"/>
  <circle cx="1000" cy="200" r="22" class="done"/>
  <circle cx="1170" cy="200" r="22" class="done"/>
  <circle cx="1285" cy="200" r="22" class="open"/>

  <rect x="100" y="250" width="100" height="66" class="node"/>
  <text x="120" y="282" class="t" font-size="18">0 bootstrap</text>
  <text x="120" y="302" class="t muted" font-size="12">done</text>

  <rect x="270" y="250" width="100" height="66" class="node"/>
  <text x="289" y="282" class="t" font-size="18">1 mesh</text>
  <text x="289" y="302" class="t muted" font-size="12">done</text>

  <rect x="440" y="250" width="100" height="66" class="node"/>
  <text x="459" y="282" class="t" font-size="18">2 verify</text>
  <text x="459" y="302" class="t muted" font-size="12">done</text>

  <rect x="610" y="250" width="100" height="66" class="node"/>
  <text x="629" y="282" class="t" font-size="18">3 curves</text>
  <text x="629" y="302" class="t muted" font-size="12">done</text>

  <rect x="780" y="250" width="100" height="66" class="node"/>
  <text x="799" y="282" class="t" font-size="18">4 interp</text>
  <text x="799" y="302" class="t muted" font-size="12">done</text>

  <rect x="950" y="250" width="100" height="66" class="node"/>
  <text x="969" y="282" class="t" font-size="18">5 inst</text>
  <text x="969" y="302" class="t muted" font-size="12">done</text>

  <rect x="1120" y="250" width="124" height="66" class="node"/>
  <text x="1134" y="282" class="t" font-size="18">6-11 geom</text>
  <text x="1134" y="302" class="t muted" font-size="12">bridge, demo, modeling</text>

  <rect x="1218" y="330" width="146" height="66" class="node"/>
  <text x="1236" y="362" class="t" font-size="18">12 release</text>
  <text x="1236" y="382" class="t muted" font-size="12">open</text>

  <rect x="60" y="430" width="612" height="250" class="node"/>
  <text x="88" y="472" class="t" font-size="22" font-weight="700">Today</text>
  <text x="88" y="508" class="t" font-size="16">zig build test</text>
  <text x="88" y="536" class="t" font-size="16">zig build -Doptimize=ReleaseFast</text>
  <text x="88" y="564" class="t" font-size="16">zig build run -- curve-wire zig-out/curve-wire.obj</text>
  <text x="88" y="592" class="t" font-size="16">zig build run -- curve-tube zig-out/curve-tube.obj</text>
  <text x="88" y="620" class="t" font-size="16">npm run dist -- &lt;version&gt;</text>
  <text x="88" y="656" class="t muted" font-size="14">Local state: runnable CLI, curve modeling, packaging path</text>

  <rect x="720" y="430" width="620" height="250" class="node"/>
  <text x="748" y="472" class="t" font-size="22" font-weight="700">Next</text>
  <text x="748" y="508" class="t" font-size="16">mesh-to-curve and curves-to-mesh roundtrip CLI</text>
  <text x="748" y="536" class="t" font-size="16">another export path once GeometrySet stabilizes</text>
  <text x="748" y="564" class="t" font-size="16">macOS notarization after credentials exist</text>
  <text x="748" y="592" class="t" font-size="16">keep runtime smaller than release tooling</text>
  <text x="748" y="628" class="t muted" font-size="14">Security: local-only runtime, signed release later</text>

  <rect x="1060" y="60" width="280" height="86" class="tag"/>
  <text x="1080" y="94" class="t" font-size="16">pushed: 18f16c6d</text>
  <text x="1080" y="116" class="t muted" font-size="12">macOS artifact workflow</text>
</svg>
